<?xml version="1.0" encoding="UTF-8" standalone="no"?>
<!DOCTYPE svg PUBLIC "-//W3C//DTD SVG 1.1//EN"
 "http://www.w3.org/Graphics/SVG/1.1/DTD/svg11.dtd">
<!-- Generated by graphviz version 2.38.0 (20140413.2041)
 -->
<!-- Title: mathGrammar.y Pages: 1 -->
<svg width="2033pt" height="1110pt"
 viewBox="0.00 0.00 2032.50 1110.00" xmlns="http://www.w3.org/2000/svg" xmlns:xlink="http://www.w3.org/1999/xlink">
<g id="graph0" class="graph" transform="scale(1 1) rotate(0) translate(4 1106)">
<title>mathGrammar.y</title>
<polygon fill="white" stroke="none" points="-4,4 -4,-1106 2028.5,-1106 2028.5,4 -4,4"/>
<!-- 0 -->
<g id="node1" class="node"><title>0</title>
<polygon fill="none" stroke="black" points="1544.5,-1102 1321.5,-1102 1321.5,-1048 1544.5,-1048 1544.5,-1102"/>
<text text-anchor="middle" x="1433" y="-1086.8" font-family="Courier,monospace" font-size="14.00">State 0</text>
<text text-anchor="start" x="1329.5" y="-1055.8" font-family="Courier,monospace" font-size="14.00"> &#160;0 $accept: . input $end</text>
</g>
<!-- 1 -->
<g id="node2" class="node"><title>1</title>
<polygon fill="none" stroke="black" points="864,-157 732,-157 732,-103 864,-103 864,-157"/>
<text text-anchor="middle" x="798" y="-141.8" font-family="Courier,monospace" font-size="14.00">State 1</text>
<text text-anchor="start" x="740" y="-110.8" font-family="Courier,monospace" font-size="14.00"> &#160;3 exp: NUM .</text>
</g>
<!-- 0&#45;&gt;1 -->
<g id="edge1" class="edge"><title>0&#45;&gt;1</title>
<path fill="none" stroke="black" d="M1321.31,-1070.44C1018.07,-1060.05 202,-1026.88 202,-971 202,-971 202,-971 202,-264 202,-196.478 276.831,-222.668 342,-205 401.273,-188.931 418.298,-196.311 479,-187 562.223,-174.234 657.228,-157.243 721.759,-145.337"/>
<polygon fill="black" stroke="black" points="722.651,-148.731 731.848,-143.471 721.378,-141.848 722.651,-148.731"/>
<text text-anchor="middle" x="214.5" y="-583.8" font-family="Courier,monospace" font-size="14.00">NUM</text>
</g>
<!-- 2 -->
<g id="node3" class="node"><title>2</title>
<polygon fill="none" stroke="black" points="1061.5,-997 896.5,-997 896.5,-943 1061.5,-943 1061.5,-997"/>
<text text-anchor="middle" x="979" y="-981.8" font-family="Courier,monospace" font-size="14.00">State 2</text>
<text text-anchor="start" x="904.5" y="-950.8" font-family="Courier,monospace" font-size="14.00"> &#160;8 exp: &#39;&#45;&#39; . exp</text>
</g>
<!-- 0&#45;&gt;2 -->
<g id="edge2" class="edge"><title>0&#45;&gt;2</title>
<path fill="none" stroke="black" d="M1321.36,-1048.67C1244.63,-1031.26 1143.95,-1008.42 1071.66,-992.021"/>
<polygon fill="black" stroke="black" points="1072.18,-988.55 1061.65,-989.751 1070.63,-995.377 1072.18,-988.55"/>
<text text-anchor="middle" x="1246.5" y="-1018.8" font-family="Courier,monospace" font-size="14.00">&#39;&#45;&#39;</text>
</g>
<!-- 3 -->
<g id="node4" class="node"><title>3</title>
<polygon fill="none" stroke="black" points="1783.5,-997 1626.5,-997 1626.5,-943 1783.5,-943 1783.5,-997"/>
<text text-anchor="middle" x="1705" y="-981.8" font-family="Courier,monospace" font-size="14.00">State 3</text>
<text text-anchor="start" x="1634.5" y="-950.8" font-family="Courier,monospace" font-size="14.00"> &#160;1 input: &#39;\n&#39; .</text>
</g>
<!-- 0&#45;&gt;3 -->
<g id="edge3" class="edge"><title>0&#45;&gt;3</title>
<path fill="none" stroke="black" d="M1544.64,-1052.49C1567.38,-1046.48 1590.81,-1039.04 1612,-1030 1628.91,-1022.79 1646.23,-1012.67 1661.27,-1002.85"/>
<polygon fill="black" stroke="black" points="1663.47,-1005.59 1669.85,-997.127 1659.59,-999.769 1663.47,-1005.59"/>
<text text-anchor="middle" x="1656" y="-1018.8" font-family="Courier,monospace" font-size="14.00">&#39;\n&#39;</text>
</g>
<!-- 4 -->
<g id="node5" class="node"><title>4</title>
<polygon fill="none" stroke="black" points="891,-862 693,-862 693,-808 891,-808 891,-862"/>
<text text-anchor="middle" x="792" y="-846.8" font-family="Courier,monospace" font-size="14.00">State 4</text>
<text text-anchor="start" x="701" y="-815.8" font-family="Courier,monospace" font-size="14.00"> &#160;9 exp: &#39;(&#39; . exp &#39;)&#39;</text>
</g>
<!-- 0&#45;&gt;4 -->
<g id="edge4" class="edge"><title>0&#45;&gt;4</title>
<path fill="none" stroke="black" d="M1321.45,-1071.7C1176.12,-1066.6 932.266,-1050.12 862,-997 822.221,-966.925 804.695,-909.527 797.227,-872.018"/>
<polygon fill="black" stroke="black" points="800.636,-871.202 795.377,-862.005 793.752,-872.474 800.636,-871.202"/>
<text text-anchor="middle" x="874.5" y="-966.3" font-family="Courier,monospace" font-size="14.00">&#39;(&#39;</text>
</g>
<!-- 5 -->
<g id="node6" class="node"><title>5</title>
<polygon fill="none" stroke="black" points="2024.5,-997 1801.5,-997 1801.5,-943 2024.5,-943 2024.5,-997"/>
<text text-anchor="middle" x="1913" y="-981.8" font-family="Courier,monospace" font-size="14.00">State 5</text>
<text text-anchor="start" x="1809.5" y="-950.8" font-family="Courier,monospace" font-size="14.00"> &#160;0 $accept: input . $end</text>
</g>
<!-- 0&#45;&gt;5 -->
<g id="edge5" class="edge"><title>0&#45;&gt;5</title>
<path fill="none" stroke="black" stroke-dasharray="5,2" d="M1544.75,-1055.46C1586.39,-1048.13 1633.97,-1039.25 1677,-1030 1719.15,-1020.94 1765.21,-1009.73 1805.36,-999.513"/>
<polygon fill="black" stroke="black" points="1806.34,-1002.87 1815.17,-997.009 1804.61,-996.092 1806.34,-1002.87"/>
<text text-anchor="middle" x="1764" y="-1018.8" font-family="Courier,monospace" font-size="14.00">input</text>
</g>
<!-- 6 -->
<g id="node7" class="node"><title>6</title>
<polygon fill="none" stroke="black" points="1697,-727 1499,-727 1499,-613 1697,-613 1697,-727"/>
<text text-anchor="middle" x="1598" y="-711.8" font-family="Courier,monospace" font-size="14.00">State 6</text>
<text text-anchor="start" x="1507" y="-680.8" font-family="Courier,monospace" font-size="14.00"> &#160;2 input: exp . &#39;\n&#39;</text>
<text text-anchor="start" x="1507" y="-665.8" font-family="Courier,monospace" font-size="14.00"> &#160;4 exp: exp . &#39;+&#39; exp</text>
<text text-anchor="start" x="1507" y="-650.8" font-family="Courier,monospace" font-size="14.00"> &#160;5 &#160;&#160;&#160;| exp . &#39;&#45;&#39; exp</text>
<text text-anchor="start" x="1507" y="-635.8" font-family="Courier,monospace" font-size="14.00"> &#160;6 &#160;&#160;&#160;| exp . &#39;*&#39; exp</text>
<text text-anchor="start" x="1507" y="-620.8" font-family="Courier,monospace" font-size="14.00"> &#160;7 &#160;&#160;&#160;| exp . &#39;/&#39; exp</text>
</g>
<!-- 0&#45;&gt;6 -->
<g id="edge6" class="edge"><title>0&#45;&gt;6</title>
<path fill="none" stroke="black" stroke-dasharray="5,2" d="M1468.63,-1047.99C1502.18,-1021.27 1550.67,-976.403 1574,-925 1600.94,-865.632 1604.84,-790.567 1603.28,-737.48"/>
<polygon fill="black" stroke="black" points="1606.77,-737.032 1602.9,-727.167 1599.77,-737.289 1606.77,-737.032"/>
<text text-anchor="middle" x="1593.5" y="-913.8" font-family="Courier,monospace" font-size="14.00">exp</text>
</g>
<!-- 1R3 -->
<g id="node8" class="node"><title>1R3</title>
<polygon fill="#b2df8a" stroke="black" points="798,-36 767.835,-18 798,-3.55271e-15 828.165,-18 798,-36"/>
<text text-anchor="middle" x="798" y="-14.3" font-family="Courier,monospace" font-size="14.00">R3</text>
</g>
<!-- 1&#45;&gt;1R3 -->
<g id="edge7" class="edge"><title>1&#45;&gt;1R3</title>
<path fill="none" stroke="black" d="M798,-102.932C798,-85.8851 798,-63.6551 798,-46.3559"/>
<polygon fill="black" stroke="black" points="801.5,-46.3123 798,-36.3123 794.5,-46.3123 801.5,-46.3123"/>
</g>
<!-- 2&#45;&gt;1 -->
<g id="edge8" class="edge"><title>2&#45;&gt;1</title>
<path fill="none" stroke="black" d="M1061.87,-965.981C1172.76,-961.069 1362.99,-949.342 1428,-925 1499.03,-898.403 1663.62,-789.901 1706,-727 1768.16,-634.736 1764,-594.75 1764,-483.5 1764,-483.5 1764,-483.5 1764,-264 1764,-195.464 1220.11,-194.617 1152,-187 1055.93,-176.257 946.088,-157.929 874.572,-145.178"/>
<polygon fill="black" stroke="black" points="874.766,-141.657 864.305,-143.339 873.531,-148.548 874.766,-141.657"/>
<text text-anchor="middle" x="1777.5" y="-531.3" font-family="Courier,monospace" font-size="14.00">NUM</text>
</g>
<!-- 2&#45;&gt;2 -->
<g id="edge9" class="edge"><title>2&#45;&gt;2</title>
<path fill="none" stroke="black" d="M1061.8,-978.545C1072.46,-977.063 1079.5,-974.215 1079.5,-970 1079.5,-967.3 1076.61,-965.161 1071.73,-963.582"/>
<polygon fill="black" stroke="black" points="1072.31,-960.127 1061.8,-961.455 1070.84,-966.971 1072.31,-960.127"/>
<text text-anchor="middle" x="1092" y="-966.3" font-family="Courier,monospace" font-size="14.00">&#39;&#45;&#39;</text>
</g>
<!-- 2&#45;&gt;4 -->
<g id="edge10" class="edge"><title>2&#45;&gt;4</title>
<path fill="none" stroke="black" d="M897.077,-942.875C886.162,-937.765 875.481,-931.829 866,-925 845.682,-910.365 827.611,-888.89 814.414,-870.702"/>
<polygon fill="black" stroke="black" points="816.96,-868.239 808.338,-862.082 811.238,-872.272 816.96,-868.239"/>
<text text-anchor="middle" x="878.5" y="-913.8" font-family="Courier,monospace" font-size="14.00">&#39;(&#39;</text>
</g>
<!-- 7 -->
<g id="node9" class="node"><title>7</title>
<polygon fill="none" stroke="black" points="1443.5,-892 1006.5,-892 1006.5,-778 1443.5,-778 1443.5,-892"/>
<text text-anchor="middle" x="1225" y="-876.8" font-family="Courier,monospace" font-size="14.00">State 7</text>
<text text-anchor="start" x="1014.5" y="-845.8" font-family="Courier,monospace" font-size="14.00"> &#160;4 exp: exp . &#39;+&#39; exp</text>
<text text-anchor="start" x="1014.5" y="-830.8" font-family="Courier,monospace" font-size="14.00"> &#160;5 &#160;&#160;&#160;| exp . &#39;&#45;&#39; exp</text>
<text text-anchor="start" x="1014.5" y="-815.8" font-family="Courier,monospace" font-size="14.00"> &#160;6 &#160;&#160;&#160;| exp . &#39;*&#39; exp</text>
<text text-anchor="start" x="1014.5" y="-800.8" font-family="Courier,monospace" font-size="14.00"> &#160;7 &#160;&#160;&#160;| exp . &#39;/&#39; exp</text>
<text text-anchor="start" x="1014.5" y="-785.8" font-family="Courier,monospace" font-size="14.00"> &#160;8 &#160;&#160;&#160;| &#39;&#45;&#39; exp . &#160;[&#39;&#45;&#39;, &#39;+&#39;, &#39;*&#39;, &#39;/&#39;, &#39;\n&#39;, &#39;)&#39;]</text>
</g>
<!-- 2&#45;&gt;7 -->
<g id="edge11" class="edge"><title>2&#45;&gt;7</title>
<path fill="none" stroke="black" stroke-dasharray="5,2" d="M1027.31,-942.882C1051.76,-929.662 1082.55,-913.016 1112.5,-896.821"/>
<polygon fill="black" stroke="black" points="1114.21,-899.877 1121.34,-892.043 1110.88,-893.72 1114.21,-899.877"/>
<text text-anchor="middle" x="1100.5" y="-913.8" font-family="Courier,monospace" font-size="14.00">exp</text>
</g>
<!-- 3R1 -->
<g id="node10" class="node"><title>3R1</title>
<polygon fill="#b2df8a" stroke="black" points="1705,-853 1674.83,-835 1705,-817 1735.17,-835 1705,-853"/>
<text text-anchor="middle" x="1705" y="-831.3" font-family="Courier,monospace" font-size="14.00">R1</text>
</g>
<!-- 3&#45;&gt;3R1 -->
<g id="edge12" class="edge"><title>3&#45;&gt;3R1</title>
<path fill="none" stroke="black" d="M1705,-942.723C1705,-919.85 1705,-886.806 1705,-863.561"/>
<polygon fill="black" stroke="black" points="1708.5,-863.334 1705,-853.334 1701.5,-863.334 1708.5,-863.334"/>
</g>
<!-- 4&#45;&gt;1 -->
<g id="edge13" class="edge"><title>4&#45;&gt;1</title>
<path fill="none" stroke="black" d="M692.906,-826.223C611.626,-815.364 497.417,-789.346 418,-727 363.668,-684.348 281.702,-523.767 264,-457 247.256,-393.849 241.509,-371.34 264,-310 278.438,-270.623 289.14,-259.75 325,-238 391.101,-197.909 605.781,-160.273 721.85,-142.202"/>
<polygon fill="black" stroke="black" points="722.394,-145.66 731.741,-140.673 721.324,-138.742 722.394,-145.66"/>
<text text-anchor="middle" x="287.5" y="-478.8" font-family="Courier,monospace" font-size="14.00">NUM</text>
</g>
<!-- 4&#45;&gt;2 -->
<g id="edge14" class="edge"><title>4&#45;&gt;2</title>
<path fill="none" stroke="black" d="M828.868,-862.222C858.942,-883.611 901.555,-913.919 933.703,-936.784"/>
<polygon fill="black" stroke="black" points="931.877,-939.78 942.055,-942.723 935.934,-934.075 931.877,-939.78"/>
<text text-anchor="middle" x="926.5" y="-913.8" font-family="Courier,monospace" font-size="14.00">&#39;&#45;&#39;</text>
</g>
<!-- 4&#45;&gt;4 -->
<g id="edge15" class="edge"><title>4&#45;&gt;4</title>
<path fill="none" stroke="black" d="M891.014,-847.934C901.943,-845.477 909,-841.166 909,-835 909,-830.954 905.961,-827.706 900.783,-825.257"/>
<polygon fill="black" stroke="black" points="901.606,-821.844 891.014,-822.066 899.433,-828.498 901.606,-821.844"/>
<text text-anchor="middle" x="921.5" y="-831.3" font-family="Courier,monospace" font-size="14.00">&#39;(&#39;</text>
</g>
<!-- 8 -->
<g id="node11" class="node"><title>8</title>
<polygon fill="none" stroke="black" points="891,-727 693,-727 693,-613 891,-613 891,-727"/>
<text text-anchor="middle" x="792" y="-711.8" font-family="Courier,monospace" font-size="14.00">State 8</text>
<text text-anchor="start" x="701" y="-680.8" font-family="Courier,monospace" font-size="14.00"> &#160;4 exp: exp . &#39;+&#39; exp</text>
<text text-anchor="start" x="701" y="-665.8" font-family="Courier,monospace" font-size="14.00"> &#160;5 &#160;&#160;&#160;| exp . &#39;&#45;&#39; exp</text>
<text text-anchor="start" x="701" y="-650.8" font-family="Courier,monospace" font-size="14.00"> &#160;6 &#160;&#160;&#160;| exp . &#39;*&#39; exp</text>
<text text-anchor="start" x="701" y="-635.8" font-family="Courier,monospace" font-size="14.00"> &#160;7 &#160;&#160;&#160;| exp . &#39;/&#39; exp</text>
<text text-anchor="start" x="701" y="-620.8" font-family="Courier,monospace" font-size="14.00"> &#160;9 &#160;&#160;&#160;| &#39;(&#39; exp . &#39;)&#39;</text>
</g>
<!-- 4&#45;&gt;8 -->
<g id="edge16" class="edge"><title>4&#45;&gt;8</title>
<path fill="none" stroke="black" stroke-dasharray="5,2" d="M792,-807.811C792,-788.749 792,-762.044 792,-737.282"/>
<polygon fill="black" stroke="black" points="795.5,-737.183 792,-727.183 788.5,-737.183 795.5,-737.183"/>
<text text-anchor="middle" x="804.5" y="-748.8" font-family="Courier,monospace" font-size="14.00">exp</text>
</g>
<!-- 9 -->
<g id="node12" class="node"><title>9</title>
<polygon fill="none" stroke="black" points="2024.5,-862 1801.5,-862 1801.5,-808 2024.5,-808 2024.5,-862"/>
<text text-anchor="middle" x="1913" y="-846.8" font-family="Courier,monospace" font-size="14.00">State 9</text>
<text text-anchor="start" x="1809.5" y="-815.8" font-family="Courier,monospace" font-size="14.00"> &#160;0 $accept: input $end .</text>
</g>
<!-- 5&#45;&gt;9 -->
<g id="edge17" class="edge"><title>5&#45;&gt;9</title>
<path fill="none" stroke="black" d="M1913,-942.723C1913,-922.595 1913,-894.59 1913,-872.318"/>
<polygon fill="black" stroke="black" points="1916.5,-872.222 1913,-862.222 1909.5,-872.222 1916.5,-872.222"/>
<text text-anchor="middle" x="1930" y="-913.8" font-family="Courier,monospace" font-size="14.00">$end</text>
</g>
<!-- 10 -->
<g id="node13" class="node"><title>10</title>
<polygon fill="none" stroke="black" points="1145,-562 947,-562 947,-508 1145,-508 1145,-562"/>
<text text-anchor="middle" x="1046" y="-546.8" font-family="Courier,monospace" font-size="14.00">State 10</text>
<text text-anchor="start" x="955" y="-515.8" font-family="Courier,monospace" font-size="14.00"> &#160;5 exp: exp &#39;&#45;&#39; . exp</text>
</g>
<!-- 6&#45;&gt;10 -->
<g id="edge18" class="edge"><title>6&#45;&gt;10</title>
<path fill="none" stroke="black" d="M1498.74,-651.595C1432.37,-640.145 1343.04,-625.096 1264,-613 1206.34,-604.177 1188.51,-615.772 1134,-595 1117.05,-588.539 1100.09,-578.297 1085.66,-568.148"/>
<polygon fill="black" stroke="black" points="1087.62,-565.246 1077.46,-562.212 1083.51,-570.914 1087.62,-565.246"/>
<text text-anchor="middle" x="1146.5" y="-583.8" font-family="Courier,monospace" font-size="14.00">&#39;&#45;&#39;</text>
</g>
<!-- 11 -->
<g id="node14" class="node"><title>11</title>
<polygon fill="none" stroke="black" points="675,-562 477,-562 477,-508 675,-508 675,-562"/>
<text text-anchor="middle" x="576" y="-546.8" font-family="Courier,monospace" font-size="14.00">State 11</text>
<text text-anchor="start" x="485" y="-515.8" font-family="Courier,monospace" font-size="14.00"> &#160;4 exp: exp &#39;+&#39; . exp</text>
</g>
<!-- 6&#45;&gt;11 -->
<g id="edge19" class="edge"><title>6&#45;&gt;11</title>
<path fill="none" stroke="black" d="M1498.67,-649.226C1432.46,-636.817 1343.35,-621.59 1264,-613 1103.41,-595.615 1061.42,-613.928 901,-595 865.074,-590.761 856.725,-585.692 821,-580 763.432,-570.828 746.119,-572.944 685.236,-562.132"/>
<polygon fill="black" stroke="black" points="685.544,-558.63 675.078,-560.282 684.289,-565.517 685.544,-558.63"/>
<text text-anchor="middle" x="913.5" y="-583.8" font-family="Courier,monospace" font-size="14.00">&#39;+&#39;</text>
</g>
<!-- 12 -->
<g id="node15" class="node"><title>12</title>
<polygon fill="none" stroke="black" points="532,-292 334,-292 334,-238 532,-238 532,-292"/>
<text text-anchor="middle" x="433" y="-276.8" font-family="Courier,monospace" font-size="14.00">State 12</text>
<text text-anchor="start" x="342" y="-245.8" font-family="Courier,monospace" font-size="14.00"> &#160;6 exp: exp &#39;*&#39; . exp</text>
</g>
<!-- 6&#45;&gt;12 -->
<g id="edge20" class="edge"><title>6&#45;&gt;12</title>
<path fill="none" stroke="black" d="M1498.86,-634.305C1440.08,-613.598 1364.17,-586.62 1297,-562 1233.21,-538.621 1219.32,-526.655 1154,-508 1114.36,-496.679 1102.66,-501.276 1063,-490 1044.74,-484.807 1040.86,-481.439 1023,-475 999.993,-466.706 990.35,-471.956 971,-457 922.821,-419.76 946.136,-376.064 895,-343 887.563,-338.191 676.17,-304.249 541.941,-283.065"/>
<polygon fill="black" stroke="black" points="542.436,-279.6 532.013,-281.5 541.346,-286.515 542.436,-279.6"/>
<text text-anchor="middle" x="1075.5" y="-478.8" font-family="Courier,monospace" font-size="14.00">&#39;*&#39;</text>
</g>
<!-- 13 -->
<g id="node16" class="node"><title>13</title>
<polygon fill="none" stroke="black" points="1495,-292 1297,-292 1297,-238 1495,-238 1495,-292"/>
<text text-anchor="middle" x="1396" y="-276.8" font-family="Courier,monospace" font-size="14.00">State 13</text>
<text text-anchor="start" x="1305" y="-245.8" font-family="Courier,monospace" font-size="14.00"> &#160;7 exp: exp &#39;/&#39; . exp</text>
</g>
<!-- 6&#45;&gt;13 -->
<g id="edge21" class="edge"><title>6&#45;&gt;13</title>
<path fill="none" stroke="black" d="M1555.88,-612.994C1545.7,-597.19 1535.81,-579.511 1529,-562 1487.82,-456.106 1554.08,-400.96 1486,-310 1482.82,-305.758 1479.13,-301.902 1475.09,-298.401"/>
<polygon fill="black" stroke="black" points="1476.97,-295.437 1466.92,-292.096 1472.7,-300.978 1476.97,-295.437"/>
<text text-anchor="middle" x="1527.5" y="-478.8" font-family="Courier,monospace" font-size="14.00">&#39;/&#39;</text>
</g>
<!-- 14 -->
<g id="node17" class="node"><title>14</title>
<polygon fill="none" stroke="black" points="1728,-562 1538,-562 1538,-508 1728,-508 1728,-562"/>
<text text-anchor="middle" x="1633" y="-546.8" font-family="Courier,monospace" font-size="14.00">State 14</text>
<text text-anchor="start" x="1546" y="-515.8" font-family="Courier,monospace" font-size="14.00"> &#160;2 input: exp &#39;\n&#39; .</text>
</g>
<!-- 6&#45;&gt;14 -->
<g id="edge22" class="edge"><title>6&#45;&gt;14</title>
<path fill="none" stroke="black" d="M1612.74,-612.981C1616.4,-599.089 1620.22,-584.571 1623.54,-571.935"/>
<polygon fill="black" stroke="black" points="1626.93,-572.813 1626.09,-562.252 1620.16,-571.032 1626.93,-572.813"/>
<text text-anchor="middle" x="1638" y="-583.8" font-family="Courier,monospace" font-size="14.00">&#39;\n&#39;</text>
</g>
<!-- 7R8 -->
<g id="node18" class="node"><title>7R8</title>
<polygon fill="#b2df8a" stroke="black" points="1225,-688 1194.83,-670 1225,-652 1255.17,-670 1225,-688"/>
<text text-anchor="middle" x="1225" y="-666.3" font-family="Courier,monospace" font-size="14.00">R8</text>
</g>
<!-- 7&#45;&gt;7R8 -->
<g id="edge23" class="edge"><title>7&#45;&gt;7R8</title>
<path fill="none" stroke="black" d="M1225,-777.905C1225,-750.962 1225,-719.903 1225,-698.23"/>
<polygon fill="black" stroke="black" points="1228.5,-698.114 1225,-688.114 1221.5,-698.114 1228.5,-698.114"/>
</g>
<!-- 8&#45;&gt;10 -->
<g id="edge24" class="edge"><title>8&#45;&gt;10</title>
<path fill="none" stroke="black" d="M891.323,-617.061C904.428,-609.823 917.605,-602.347 930,-595 940.498,-588.777 942.348,-585.957 953,-580 961.215,-575.406 969.988,-570.839 978.742,-566.482"/>
<polygon fill="black" stroke="black" points="980.395,-569.57 987.834,-562.026 977.314,-563.285 980.395,-569.57"/>
<text text-anchor="middle" x="965.5" y="-583.8" font-family="Courier,monospace" font-size="14.00">&#39;&#45;&#39;</text>
</g>
<!-- 8&#45;&gt;11 -->
<g id="edge25" class="edge"><title>8&#45;&gt;11</title>
<path fill="none" stroke="black" d="M701.023,-612.981C675.678,-597.376 649.051,-580.981 626.914,-567.35"/>
<polygon fill="black" stroke="black" points="628.7,-564.339 618.35,-562.076 625.03,-570.3 628.7,-564.339"/>
<text text-anchor="middle" x="684.5" y="-583.8" font-family="Courier,monospace" font-size="14.00">&#39;+&#39;</text>
</g>
<!-- 8&#45;&gt;12 -->
<g id="edge26" class="edge"><title>8&#45;&gt;12</title>
<path fill="none" stroke="black" d="M692.909,-614.907C691.268,-614.252 689.631,-613.615 688,-613 594.094,-577.56 554.52,-612.877 468,-562 413.752,-530.1 395.624,-515.725 373,-457 354.786,-409.72 356.535,-390.917 373,-343 378.376,-327.354 388.376,-312.445 398.692,-299.984"/>
<polygon fill="black" stroke="black" points="401.564,-302.015 405.472,-292.167 396.276,-297.429 401.564,-302.015"/>
<text text-anchor="middle" x="400.5" y="-478.8" font-family="Courier,monospace" font-size="14.00">&#39;*&#39;</text>
</g>
<!-- 8&#45;&gt;13 -->
<g id="edge27" class="edge"><title>8&#45;&gt;13</title>
<path fill="none" stroke="black" d="M888.017,-612.835C894.18,-607.258 899.933,-601.307 905,-595 930.9,-562.76 910.879,-539.22 938,-508 957.959,-485.025 968.711,-483.269 998,-475 1038.57,-463.546 1346.43,-486.03 1377,-457 1418.39,-417.7 1412.9,-345.495 1404.73,-302.004"/>
<polygon fill="black" stroke="black" points="1408.15,-301.24 1402.74,-292.13 1401.29,-302.625 1408.15,-301.24"/>
<text text-anchor="middle" x="1010.5" y="-478.8" font-family="Courier,monospace" font-size="14.00">&#39;/&#39;</text>
</g>
<!-- 15 -->
<g id="node19" class="node"><title>15</title>
<polygon fill="none" stroke="black" points="891,-562 693,-562 693,-508 891,-508 891,-562"/>
<text text-anchor="middle" x="792" y="-546.8" font-family="Courier,monospace" font-size="14.00">State 15</text>
<text text-anchor="start" x="701" y="-515.8" font-family="Courier,monospace" font-size="14.00"> &#160;9 exp: &#39;(&#39; exp &#39;)&#39; .</text>
</g>
<!-- 8&#45;&gt;15 -->
<g id="edge28" class="edge"><title>8&#45;&gt;15</title>
<path fill="none" stroke="black" d="M792,-612.981C792,-599.227 792,-584.858 792,-572.31"/>
<polygon fill="black" stroke="black" points="795.5,-572.252 792,-562.252 788.5,-572.252 795.5,-572.252"/>
<text text-anchor="middle" x="804.5" y="-583.8" font-family="Courier,monospace" font-size="14.00">&#39;)&#39;</text>
</g>
<!-- 9R0 -->
<g id="node20" class="node"><title>9R0</title>
<polygon fill="#a6cee3" stroke="black" points="1913,-688 1875.13,-670 1913,-652 1950.87,-670 1913,-688"/>
<text text-anchor="middle" x="1913" y="-666.3" font-family="Courier,monospace" font-size="14.00">Acc</text>
</g>
<!-- 9&#45;&gt;9R0 -->
<g id="edge29" class="edge"><title>9&#45;&gt;9R0</title>
<path fill="none" stroke="black" d="M1913,-807.811C1913,-777.835 1913,-728.958 1913,-698.459"/>
<polygon fill="black" stroke="black" points="1916.5,-698.124 1913,-688.124 1909.5,-698.124 1916.5,-698.124"/>
</g>
<!-- 10&#45;&gt;1 -->
<g id="edge30" class="edge"><title>10&#45;&gt;1</title>
<path fill="none" stroke="black" d="M964.421,-507.979C956.126,-502.962 948.411,-497.022 942,-490 895.749,-439.348 919.758,-406.967 895,-343 870.4,-279.441 836.196,-207.775 815.664,-166.165"/>
<polygon fill="black" stroke="black" points="818.702,-164.413 811.126,-157.007 812.43,-167.521 818.702,-164.413"/>
<text text-anchor="middle" x="900.5" y="-313.8" font-family="Courier,monospace" font-size="14.00">NUM</text>
</g>
<!-- 10&#45;&gt;2 -->
<g id="edge31" class="edge"><title>10&#45;&gt;2</title>
<path fill="none" stroke="black" d="M1044.52,-562.092C1041.91,-599.294 1035.17,-669.449 1019,-727 1012.32,-750.766 1003.12,-754.085 997,-778 983.523,-830.646 979.913,-893.77 979.068,-932.631"/>
<polygon fill="black" stroke="black" points="975.563,-932.863 978.896,-942.92 982.562,-932.979 975.563,-932.863"/>
<text text-anchor="middle" x="1024.5" y="-748.8" font-family="Courier,monospace" font-size="14.00">&#39;&#45;&#39;</text>
</g>
<!-- 10&#45;&gt;4 -->
<g id="edge32" class="edge"><title>10&#45;&gt;4</title>
<path fill="none" stroke="black" d="M1027.71,-562.218C1001.06,-599.87 949.339,-670.899 900,-727 877.235,-752.885 849.589,-780.207 827.967,-800.763"/>
<polygon fill="black" stroke="black" points="825.451,-798.326 820.589,-807.739 830.26,-803.412 825.451,-798.326"/>
<text text-anchor="middle" x="1002.5" y="-666.3" font-family="Courier,monospace" font-size="14.00">&#39;(&#39;</text>
</g>
<!-- 16 -->
<g id="node21" class="node"><title>16</title>
<polygon fill="none" stroke="black" points="1368,-457 980,-457 980,-343 1368,-343 1368,-457"/>
<text text-anchor="middle" x="1174" y="-441.8" font-family="Courier,monospace" font-size="14.00">State 16</text>
<text text-anchor="start" x="988" y="-410.8" font-family="Courier,monospace" font-size="14.00"> &#160;4 exp: exp . &#39;+&#39; exp</text>
<text text-anchor="start" x="988" y="-395.8" font-family="Courier,monospace" font-size="14.00"> &#160;5 &#160;&#160;&#160;| exp . &#39;&#45;&#39; exp</text>
<text text-anchor="start" x="988" y="-380.8" font-family="Courier,monospace" font-size="14.00"> &#160;5 &#160;&#160;&#160;| exp &#39;&#45;&#39; exp . &#160;[&#39;&#45;&#39;, &#39;+&#39;, &#39;\n&#39;, &#39;)&#39;]</text>
<text text-anchor="start" x="988" y="-365.8" font-family="Courier,monospace" font-size="14.00"> &#160;6 &#160;&#160;&#160;| exp . &#39;*&#39; exp</text>
<text text-anchor="start" x="988" y="-350.8" font-family="Courier,monospace" font-size="14.00"> &#160;7 &#160;&#160;&#160;| exp . &#39;/&#39; exp</text>
</g>
<!-- 10&#45;&gt;16 -->
<g id="edge33" class="edge"><title>10&#45;&gt;16</title>
<path fill="none" stroke="black" stroke-dasharray="5,2" d="M1071.29,-507.723C1083.25,-495.297 1098.1,-479.87 1112.75,-464.643"/>
<polygon fill="black" stroke="black" points="1115.5,-466.83 1119.92,-457.198 1110.46,-461.976 1115.5,-466.83"/>
<text text-anchor="middle" x="1115.5" y="-478.8" font-family="Courier,monospace" font-size="14.00">exp</text>
</g>
<!-- 11&#45;&gt;1 -->
<g id="edge34" class="edge"><title>11&#45;&gt;1</title>
<path fill="none" stroke="black" d="M673.726,-507.943C718.844,-493.816 765.422,-475.497 779,-457 812.095,-411.916 805.463,-242.691 800.682,-167.452"/>
<polygon fill="black" stroke="black" points="804.147,-166.807 799.995,-157.059 797.162,-167.269 804.147,-166.807"/>
<text text-anchor="middle" x="817.5" y="-313.8" font-family="Courier,monospace" font-size="14.00">NUM</text>
</g>
<!-- 11&#45;&gt;2 -->
<g id="edge35" class="edge"><title>11&#45;&gt;2</title>
<path fill="none" stroke="black" d="M574.755,-562.058C573.124,-629.471 579.184,-810.051 684,-892 756.094,-948.365 796.707,-920.327 886.41,-941.914"/>
<polygon fill="black" stroke="black" points="885.566,-945.311 896.121,-944.398 887.301,-938.529 885.566,-945.311"/>
<text text-anchor="middle" x="612.5" y="-748.8" font-family="Courier,monospace" font-size="14.00">&#39;&#45;&#39;</text>
</g>
<!-- 11&#45;&gt;4 -->
<g id="edge36" class="edge"><title>11&#45;&gt;4</title>
<path fill="none" stroke="black" d="M582.978,-562.177C594.254,-601.033 619.311,-674.968 659,-727 681.64,-756.682 714.203,-783.061 741.441,-802.2"/>
<polygon fill="black" stroke="black" points="739.487,-805.105 749.706,-807.903 743.463,-799.343 739.487,-805.105"/>
<text text-anchor="middle" x="671.5" y="-666.3" font-family="Courier,monospace" font-size="14.00">&#39;(&#39;</text>
</g>
<!-- 17 -->
<g id="node22" class="node"><title>17</title>
<polygon fill="none" stroke="black" points="770,-457 382,-457 382,-343 770,-343 770,-457"/>
<text text-anchor="middle" x="576" y="-441.8" font-family="Courier,monospace" font-size="14.00">State 17</text>
<text text-anchor="start" x="390" y="-410.8" font-family="Courier,monospace" font-size="14.00"> &#160;4 exp: exp . &#39;+&#39; exp</text>
<text text-anchor="start" x="390" y="-395.8" font-family="Courier,monospace" font-size="14.00"> &#160;4 &#160;&#160;&#160;| exp &#39;+&#39; exp . &#160;[&#39;&#45;&#39;, &#39;+&#39;, &#39;\n&#39;, &#39;)&#39;]</text>
<text text-anchor="start" x="390" y="-380.8" font-family="Courier,monospace" font-size="14.00"> &#160;5 &#160;&#160;&#160;| exp . &#39;&#45;&#39; exp</text>
<text text-anchor="start" x="390" y="-365.8" font-family="Courier,monospace" font-size="14.00"> &#160;6 &#160;&#160;&#160;| exp . &#39;*&#39; exp</text>
<text text-anchor="start" x="390" y="-350.8" font-family="Courier,monospace" font-size="14.00"> &#160;7 &#160;&#160;&#160;| exp . &#39;/&#39; exp</text>
</g>
<!-- 11&#45;&gt;17 -->
<g id="edge37" class="edge"><title>11&#45;&gt;17</title>
<path fill="none" stroke="black" stroke-dasharray="5,2" d="M576,-507.723C576,-496.088 576,-481.821 576,-467.551"/>
<polygon fill="black" stroke="black" points="579.5,-467.198 576,-457.198 572.5,-467.198 579.5,-467.198"/>
<text text-anchor="middle" x="588.5" y="-478.8" font-family="Courier,monospace" font-size="14.00">exp</text>
</g>
<!-- 12&#45;&gt;1 -->
<g id="edge38" class="edge"><title>12&#45;&gt;1</title>
<path fill="none" stroke="black" d="M504.677,-237.882C567.375,-215.036 658.16,-181.956 722.084,-158.662"/>
<polygon fill="black" stroke="black" points="723.512,-161.868 731.709,-155.155 721.115,-155.291 723.512,-161.868"/>
<text text-anchor="middle" x="606.5" y="-208.8" font-family="Courier,monospace" font-size="14.00">NUM</text>
</g>
<!-- 12&#45;&gt;2 -->
<g id="edge39" class="edge"><title>12&#45;&gt;2</title>
<path fill="none" stroke="black" d="M381.497,-292.117C362.01,-304.74 341.722,-321.801 330,-343 287.539,-419.792 280,-446.251 280,-534 280,-836 280,-836 280,-836 280,-970.748 734.577,-919.079 886.234,-942.337"/>
<polygon fill="black" stroke="black" points="885.749,-945.805 896.199,-944.062 886.943,-938.907 885.749,-945.805"/>
<text text-anchor="middle" x="292.5" y="-583.8" font-family="Courier,monospace" font-size="14.00">&#39;&#45;&#39;</text>
</g>
<!-- 12&#45;&gt;4 -->
<g id="edge40" class="edge"><title>12&#45;&gt;4</title>
<path fill="none" stroke="black" d="M393.558,-292.097C377.919,-305.155 362.191,-322.554 356,-343 327.728,-436.375 320.754,-478.372 371,-562 413.567,-632.847 624.776,-748.322 730.909,-803.183"/>
<polygon fill="black" stroke="black" points="729.421,-806.354 739.914,-807.823 732.628,-800.131 729.421,-806.354"/>
<text text-anchor="middle" x="383.5" y="-531.3" font-family="Courier,monospace" font-size="14.00">&#39;(&#39;</text>
</g>
<!-- 18 -->
<g id="node23" class="node"><title>18</title>
<polygon fill="none" stroke="black" points="470,-187 0,-187 0,-73 470,-73 470,-187"/>
<text text-anchor="middle" x="235" y="-171.8" font-family="Courier,monospace" font-size="14.00">State 18</text>
<text text-anchor="start" x="8" y="-140.8" font-family="Courier,monospace" font-size="14.00"> &#160;4 exp: exp . &#39;+&#39; exp</text>
<text text-anchor="start" x="8" y="-125.8" font-family="Courier,monospace" font-size="14.00"> &#160;5 &#160;&#160;&#160;| exp . &#39;&#45;&#39; exp</text>
<text text-anchor="start" x="8" y="-110.8" font-family="Courier,monospace" font-size="14.00"> &#160;6 &#160;&#160;&#160;| exp . &#39;*&#39; exp</text>
<text text-anchor="start" x="8" y="-95.8" font-family="Courier,monospace" font-size="14.00"> &#160;6 &#160;&#160;&#160;| exp &#39;*&#39; exp . &#160;[&#39;&#45;&#39;, &#39;+&#39;, &#39;*&#39;, &#39;/&#39;, &#39;\n&#39;, &#39;)&#39;]</text>
<text text-anchor="start" x="8" y="-80.8" font-family="Courier,monospace" font-size="14.00"> &#160;7 &#160;&#160;&#160;| exp . &#39;/&#39; exp</text>
</g>
<!-- 12&#45;&gt;18 -->
<g id="edge41" class="edge"><title>12&#45;&gt;18</title>
<path fill="none" stroke="black" stroke-dasharray="5,2" d="M393.882,-237.723C374.626,-224.789 350.529,-208.603 326.966,-192.775"/>
<polygon fill="black" stroke="black" points="328.915,-189.868 318.663,-187.198 325.012,-195.679 328.915,-189.868"/>
<text text-anchor="middle" x="376.5" y="-208.8" font-family="Courier,monospace" font-size="14.00">exp</text>
</g>
<!-- 13&#45;&gt;1 -->
<g id="edge42" class="edge"><title>13&#45;&gt;1</title>
<path fill="none" stroke="black" d="M1296.92,-241.963C1178.14,-215.547 981.697,-171.856 874.16,-147.939"/>
<polygon fill="black" stroke="black" points="874.875,-144.512 864.354,-145.758 873.355,-151.345 874.875,-144.512"/>
<text text-anchor="middle" x="1198.5" y="-208.8" font-family="Courier,monospace" font-size="14.00">NUM</text>
</g>
<!-- 13&#45;&gt;2 -->
<g id="edge43" class="edge"><title>13&#45;&gt;2</title>
<path fill="none" stroke="black" d="M1425.16,-292.303C1429.53,-297.706 1433.43,-303.688 1436,-310 1489.45,-441.522 1466.42,-875.048 1452,-892 1404.2,-948.215 1195.53,-963.496 1071.89,-967.579"/>
<polygon fill="black" stroke="black" points="1071.56,-964.088 1061.67,-967.898 1071.77,-971.085 1071.56,-964.088"/>
<text text-anchor="middle" x="1482.5" y="-583.8" font-family="Courier,monospace" font-size="14.00">&#39;&#45;&#39;</text>
</g>
<!-- 13&#45;&gt;4 -->
<g id="edge44" class="edge"><title>13&#45;&gt;4</title>
<path fill="none" stroke="black" d="M1412.97,-292.108C1415.88,-297.793 1418.45,-303.929 1420,-310 1436.2,-373.518 1440.99,-400.355 1408,-457 1404.69,-462.683 1024.7,-723.712 1019,-727 968.699,-756.042 909.226,-783.854 863.776,-803.841"/>
<polygon fill="black" stroke="black" points="862.35,-800.645 854.59,-807.858 865.155,-807.058 862.35,-800.645"/>
<text text-anchor="middle" x="1347.5" y="-531.3" font-family="Courier,monospace" font-size="14.00">&#39;(&#39;</text>
</g>
<!-- 19 -->
<g id="node24" class="node"><title>19</title>
<polygon fill="none" stroke="black" points="1631,-187 1161,-187 1161,-73 1631,-73 1631,-187"/>
<text text-anchor="middle" x="1396" y="-171.8" font-family="Courier,monospace" font-size="14.00">State 19</text>
<text text-anchor="start" x="1169" y="-140.8" font-family="Courier,monospace" font-size="14.00"> &#160;4 exp: exp . &#39;+&#39; exp</text>
<text text-anchor="start" x="1169" y="-125.8" font-family="Courier,monospace" font-size="14.00"> &#160;5 &#160;&#160;&#160;| exp . &#39;&#45;&#39; exp</text>
<text text-anchor="start" x="1169" y="-110.8" font-family="Courier,monospace" font-size="14.00"> &#160;6 &#160;&#160;&#160;| exp . &#39;*&#39; exp</text>
<text text-anchor="start" x="1169" y="-95.8" font-family="Courier,monospace" font-size="14.00"> &#160;7 &#160;&#160;&#160;| exp . &#39;/&#39; exp</text>
<text text-anchor="start" x="1169" y="-80.8" font-family="Courier,monospace" font-size="14.00"> &#160;7 &#160;&#160;&#160;| exp &#39;/&#39; exp . &#160;[&#39;&#45;&#39;, &#39;+&#39;, &#39;*&#39;, &#39;/&#39;, &#39;\n&#39;, &#39;)&#39;]</text>
</g>
<!-- 13&#45;&gt;19 -->
<g id="edge45" class="edge"><title>13&#45;&gt;19</title>
<path fill="none" stroke="black" stroke-dasharray="5,2" d="M1396,-237.723C1396,-226.088 1396,-211.821 1396,-197.551"/>
<polygon fill="black" stroke="black" points="1399.5,-197.198 1396,-187.198 1392.5,-197.198 1399.5,-197.198"/>
<text text-anchor="middle" x="1408.5" y="-208.8" font-family="Courier,monospace" font-size="14.00">exp</text>
</g>
<!-- 14R2 -->
<g id="node25" class="node"><title>14R2</title>
<polygon fill="#b2df8a" stroke="black" points="1633,-418 1602.83,-400 1633,-382 1663.17,-400 1633,-418"/>
<text text-anchor="middle" x="1633" y="-396.3" font-family="Courier,monospace" font-size="14.00">R2</text>
</g>
<!-- 14&#45;&gt;14R2 -->
<g id="edge46" class="edge"><title>14&#45;&gt;14R2</title>
<path fill="none" stroke="black" d="M1633,-507.723C1633,-484.85 1633,-451.806 1633,-428.561"/>
<polygon fill="black" stroke="black" points="1636.5,-428.334 1633,-418.334 1629.5,-428.334 1636.5,-428.334"/>
</g>
<!-- 15R9 -->
<g id="node26" class="node"><title>15R9</title>
<polygon fill="#b2df8a" stroke="black" points="856,-418 825.835,-400 856,-382 886.165,-400 856,-418"/>
<text text-anchor="middle" x="856" y="-396.3" font-family="Courier,monospace" font-size="14.00">R9</text>
</g>
<!-- 15&#45;&gt;15R9 -->
<g id="edge47" class="edge"><title>15&#45;&gt;15R9</title>
<path fill="none" stroke="black" d="M804.644,-507.723C816.502,-483.082 834.039,-446.638 845.242,-423.357"/>
<polygon fill="black" stroke="black" points="848.438,-424.787 849.62,-414.258 842.13,-421.751 848.438,-424.787"/>
</g>
<!-- 16&#45;&gt;12 -->
<g id="edge48" class="edge"><title>16&#45;&gt;12</title>
<path fill="none" stroke="black" d="M1048.39,-342.944C1014.76,-330.07 978.014,-317.866 943,-310 837.77,-286.358 808.459,-301.208 701,-292 648.821,-287.529 590.986,-281.992 542.438,-277.178"/>
<polygon fill="black" stroke="black" points="542.522,-273.669 532.225,-276.162 541.829,-280.635 542.522,-273.669"/>
<text text-anchor="middle" x="1008.5" y="-313.8" font-family="Courier,monospace" font-size="14.00">&#39;*&#39;</text>
</g>
<!-- 16&#45;&gt;13 -->
<g id="edge49" class="edge"><title>16&#45;&gt;13</title>
<path fill="none" stroke="black" d="M1267.5,-342.981C1293.55,-327.376 1320.92,-310.981 1343.67,-297.35"/>
<polygon fill="black" stroke="black" points="1345.69,-300.218 1352.47,-292.076 1342.1,-294.213 1345.69,-300.218"/>
<text text-anchor="middle" x="1330.5" y="-313.8" font-family="Courier,monospace" font-size="14.00">&#39;/&#39;</text>
</g>
<!-- 16R5 -->
<g id="node27" class="node"><title>16R5</title>
<polygon fill="#b2df8a" stroke="black" points="1174,-283 1143.83,-265 1174,-247 1204.17,-265 1174,-283"/>
<text text-anchor="middle" x="1174" y="-261.3" font-family="Courier,monospace" font-size="14.00">R5</text>
</g>
<!-- 16&#45;&gt;16R5 -->
<g id="edge50" class="edge"><title>16&#45;&gt;16R5</title>
<path fill="none" stroke="black" d="M1174,-342.981C1174,-325.784 1174,-307.626 1174,-293.268"/>
<polygon fill="black" stroke="black" points="1177.5,-293.107 1174,-283.107 1170.5,-293.107 1177.5,-293.107"/>
</g>
<!-- 17&#45;&gt;12 -->
<g id="edge51" class="edge"><title>17&#45;&gt;12</title>
<path fill="none" stroke="black" d="M515.77,-342.981C499.798,-328.126 483.056,-312.555 468.841,-299.335"/>
<polygon fill="black" stroke="black" points="470.932,-296.499 461.226,-292.252 466.164,-301.625 470.932,-296.499"/>
<text text-anchor="middle" x="508.5" y="-313.8" font-family="Courier,monospace" font-size="14.00">&#39;*&#39;</text>
</g>
<!-- 17&#45;&gt;13 -->
<g id="edge52" class="edge"><title>17&#45;&gt;13</title>
<path fill="none" stroke="black" d="M770.205,-351.379C785.984,-348.271 801.727,-345.423 817,-343 908.644,-328.463 932.9,-336.294 1025,-325 1113.26,-314.177 1212.73,-298.148 1286.45,-285.528"/>
<polygon fill="black" stroke="black" points="1287.41,-288.914 1296.68,-283.771 1286.23,-282.015 1287.41,-288.914"/>
<text text-anchor="middle" x="1140.5" y="-313.8" font-family="Courier,monospace" font-size="14.00">&#39;/&#39;</text>
</g>
<!-- 17R4 -->
<g id="node28" class="node"><title>17R4</title>
<polygon fill="#b2df8a" stroke="black" points="740,-283 709.835,-265 740,-247 770.165,-265 740,-283"/>
<text text-anchor="middle" x="740" y="-261.3" font-family="Courier,monospace" font-size="14.00">R4</text>
</g>
<!-- 17&#45;&gt;17R4 -->
<g id="edge53" class="edge"><title>17&#45;&gt;17R4</title>
<path fill="none" stroke="black" d="M645.075,-342.981C672.252,-320.942 701.372,-297.326 720.086,-282.149"/>
<polygon fill="black" stroke="black" points="722.346,-284.823 727.908,-275.806 717.937,-279.386 722.346,-284.823"/>
</g>
<!-- 18R6 -->
<g id="node29" class="node"><title>18R6</title>
<polygon fill="#b2df8a" stroke="black" points="235,-36 204.835,-18 235,-3.55271e-15 265.165,-18 235,-36"/>
<text text-anchor="middle" x="235" y="-14.3" font-family="Courier,monospace" font-size="14.00">R6</text>
</g>
<!-- 18&#45;&gt;18R6 -->
<g id="edge54" class="edge"><title>18&#45;&gt;18R6</title>
<path fill="none" stroke="black" d="M235,-72.711C235,-63.5533 235,-54.4431 235,-46.397"/>
<polygon fill="black" stroke="black" points="238.5,-46.1799 235,-36.1799 231.5,-46.18 238.5,-46.1799"/>
</g>
<!-- 19R7 -->
<g id="node30" class="node"><title>19R7</title>
<polygon fill="#b2df8a" stroke="black" points="1396,-36 1365.83,-18 1396,-3.55271e-15 1426.17,-18 1396,-36"/>
<text text-anchor="middle" x="1396" y="-14.3" font-family="Courier,monospace" font-size="14.00">R7</text>
</g>
<!-- 19&#45;&gt;19R7 -->
<g id="edge55" class="edge"><title>19&#45;&gt;19R7</title>
<path fill="none" stroke="black" d="M1396,-72.711C1396,-63.5533 1396,-54.4431 1396,-46.397"/>
<polygon fill="black" stroke="black" points="1399.5,-46.1799 1396,-36.1799 1392.5,-46.18 1399.5,-46.1799"/>
</g>
</g>
</svg>
